<?xml version="1.0" encoding="utf-8"?>
<!-- Generator: Adobe Illustrator 16.0.0, SVG Export Plug-In . SVG Version: 6.00 Build 0)  -->
<!DOCTYPE svg PUBLIC "-//W3C//DTD SVG 1.1//EN" "http://www.w3.org/Graphics/SVG/1.1/DTD/svg11.dtd">
<svg version="1.1" id="Layer_1" xmlns="http://www.w3.org/2000/svg" xmlns:xlink="http://www.w3.org/1999/xlink" x="0px" y="0px"
	 width="50px" height="50px" viewBox="0 0 50 50" enable-background="new 0 0 50 50" xml:space="preserve">
<path fill="#00447C" d="M25,50C11.193,50,0,38.809,0,25C0,11.193,11.193,0,25,0c13.808,0,25,11.193,25,25C50,38.809,38.808,50,25,50
	z M45.667,25c0-11.414-9.253-20.667-20.667-20.667S4.333,13.586,4.333,25c0,11.414,9.253,20.667,20.667,20.667
	S45.667,36.414,45.667,25z M40.273,24.387L25,9.113L9.727,24.387h10.065v16.5h10.416v-16.5H40.273z"/>
</svg>
